<svg id="Layer_1" data-name="Layer 1" xmlns="http://www.w3.org/2000/svg" viewBox="0 0 551.43 146"><defs><style>.cls-1{fill:#252c6a;}.cls-2{fill:#3ac1cc;}</style></defs><title>SegalLogoFullColor</title><path class="cls-1" d="M203.74,92.41c2.42,3.69,9.95,15.21,31.14,15.21a28.67,28.67,0,0,0,10.8-1.71c7.25-3,8.53-8.1,8.53-11.52,0-6.39-4.41-8.67-7.54-10-2.27-.85-2.56-1-11.66-3.12l-12.08-2.56c-6.39-1.57-9.52-2.28-12.65-3.56-4.55-1.84-16.92-8-16.92-24.59,0-19,16.07-31.28,39.67-31.28,21.61,0,33.26,10.66,40.37,20.33L258.05,51.18c-3.41-5-10-14.93-26-14.93-10.09,0-18.9,4.55-18.9,12.23,0,8.52,9.38,10.23,18.47,11.94L242,62.69c13.5,2.84,32.56,8.39,32.56,29.85,0,23-21.33,32.28-42.65,32.28A67.2,67.2,0,0,1,214,122.54c-6.68-2-18.48-6.82-26-19.05Z"/><path class="cls-1" d="M336.93,77.62c-1.56-11.09-8.38-14.93-15.92-14.93-9.1,0-15.35,5.26-17.35,14.93Zm19.34,28.71c-8.82,11.8-20.19,18.06-34.69,18.06-18.62,0-36.54-11.8-36.54-38C285,62.55,300.4,49,320.44,49c18.77,0,26.59,11.24,28,13.37,5.83,8.24,7.11,20.61,7.25,27.72H303.1c2,11.23,9,17.63,20.18,17.63,11.66,0,16.35-6.83,18.49-9.81Z"/><path class="cls-1" d="M400.61,64.26c-8.67,0-17.48,5.82-17.48,19.47,0,12.37,7.53,18.76,17.63,18.76,9.09,0,17.34-5,17.48-18,.14-11.51-6.11-20.18-17.63-20.18m34.12-13.08v58.28c-.14,14.08-.14,19.76-4.54,25.74-4,5.25-12.8,10.8-29.58,10.8-25.3,0-30.27-10.95-32.69-22.32h18.76c1.28,4.12,4.27,8.81,14.5,8.81,8.67,0,12.51-3.41,14.08-5.68,2.56-3.56,2.56-7.68,2.56-16.35-3.7,3.41-11.09,7.67-21.33,7.67-16.77,0-30.85-11.37-30.85-34,0-26.44,18.91-35.12,32-35.12,12.8,0,18.2,7,20.19,9.53V51.18Z"/><path class="cls-1" d="M495.29,86.86c-3.42,1.71-7.25,3-14.93,4.26-6.12.86-14.22,2.28-14.22,9.81,0,5.55,4.69,8.39,11.52,8.39,8.67,0,14.78-4,16.63-8.25a14.29,14.29,0,0,0,1-6.39ZM451.36,72.07c.28-3.55.56-6.54,2.84-10.66C461,49,477.94,49,482.49,49c6.82,0,15.07.86,21.32,4.55,8.39,5.12,8.53,11.8,8.53,19.48v37.67c0,5.4,0,7.25,3.13,11.52H495.29c-.15-1.71-.43-4.55-.43-5.55a33.49,33.49,0,0,1-21,7.25c-16.07,0-25.73-9.95-25.73-22.17a21.53,21.53,0,0,1,2.27-9.67c5.12-10.24,16.07-12.51,22.89-13.79,14.64-3,15.78-3.27,22-5.26,0-3.55-.29-10.8-12.09-10.8-7.11,0-10.95,2.27-12.66,4.55s-1.7,4.26-1.7,6.25Z"/><rect class="cls-1" x="534.23" y="21.89" width="17.21" height="100.37"/><polygon class="cls-2" points="126.44 146 120.8 94.07 168.59 73 84.3 73 126.44 146"/><polygon class="cls-2" points="126.44 0 84.3 30.85 42.15 0 84.3 73 126.44 0"/><polygon class="cls-2" points="42.15 146 47.8 94.07 0 73 84.3 73 42.15 146"/></svg>