<svg width="149" height="20" viewBox="0 0 149 20" fill="none" xmlns="http://www.w3.org/2000/svg">
<path fill-rule="evenodd" clip-rule="evenodd" d="M74.0838 11.7906C74.0838 15.4784 71.4608 18.439 68.1366 18.439C66.5264 18.439 64.9942 17.7119 64.3709 16.673V18.1793H60.709V0H64.3709V6.93411C64.9942 5.89529 66.5264 5.16812 68.1366 5.16812C71.4608 5.16812 74.0838 8.10278 74.0838 11.7906ZM58.5602 15.7641C57.6253 17.4521 55.4957 18.439 52.8467 18.439C49.107 18.439 46.1463 15.5303 46.1463 11.7386C46.1463 8.02487 49.055 5.16812 52.7688 5.16812C56.2229 5.16812 58.9238 7.84308 58.9238 11.2452C58.9238 11.6867 58.8978 12.1801 58.8199 12.6736H49.6524C49.99 14.4136 51.1846 15.3226 52.9246 15.3226C54.0673 15.3226 55.262 14.8032 55.7035 14.024L58.5602 15.7641ZM36.0246 11.1933L33.4276 18.1793H30.5968L26 5.42783H29.9215L32.0511 12.4139L34.5962 5.42783H37.453L40.024 12.4139L42.1277 5.42783H46.0752L41.4784 18.1793H38.5957L36.0246 11.1933ZM55.262 10.3362H49.7043C50.0419 8.95981 51.0548 8.12875 52.587 8.12875C53.9375 8.12875 55.1061 9.06369 55.262 10.3362ZM67.3315 14.959C66.0589 14.959 64.9162 14.2838 64.3709 13.3748V10.2583C64.9162 9.32339 66.0589 8.62219 67.3315 8.62219C69.1235 8.62219 70.4999 9.97266 70.4999 11.7906C70.4999 13.6085 69.1235 14.959 67.3315 14.959ZM85.4781 14.2838C85.4781 16.725 83.4005 18.439 80.4398 18.439C78.2583 18.439 76.2586 17.9196 74.7263 16.8289L75.8171 14.2838C77.0117 15.1667 78.57 15.6342 80.1282 15.6342C81.2709 15.6342 81.9981 15.1927 81.9981 14.5175C81.988 13.7944 80.9566 13.5684 79.6923 13.2914C77.6871 12.852 75.0958 12.2842 75.064 9.40131C75.038 7.01202 77.1676 5.16812 80.1801 5.16812C81.9721 5.16812 83.7641 5.60962 85.0366 6.62247L83.9978 9.27145C83.0109 8.51831 81.4008 7.94696 80.0243 7.94696C79.0894 7.94696 78.4661 8.38846 78.4661 8.95981C78.4762 9.68 79.5363 9.96439 80.8292 10.3112C82.8465 10.8524 85.4306 11.5457 85.4781 14.2838ZM93.3404 18.3871C94.0157 18.3871 94.7428 18.2572 95.2103 18.0235L95.0285 14.7772C94.7428 14.8811 94.2494 14.959 93.8858 14.959C92.821 14.959 91.9121 14.2058 91.9121 13.0112V8.90787H95.0545V5.42783H91.9121V2.07764H88.2502V5.42783H85.8869V8.90787H88.2502V13.193C88.2502 16.4912 90.3538 18.3871 93.3404 18.3871ZM105.618 16.673C104.994 17.7119 103.462 18.439 101.852 18.439C98.5278 18.439 95.9048 15.4784 95.9048 11.7906C95.9048 8.10278 98.5278 5.16812 101.852 5.16812C103.462 5.16812 104.994 5.89529 105.618 6.93411V5.42783H109.28V18.1793H105.618V16.673ZM102.657 14.959C100.865 14.959 99.4887 13.6085 99.4887 11.7906C99.4887 9.97266 100.865 8.62219 102.657 8.62219C103.93 8.62219 105.072 9.32339 105.618 10.2583V13.3748C105.072 14.2838 103.93 14.959 102.657 14.959ZM123.764 14.7772C122.803 16.9847 120.492 18.439 117.765 18.439C113.948 18.439 111.065 15.6082 111.065 11.8166C111.065 8.02487 113.948 5.16812 117.765 5.16812C120.258 5.16812 122.362 6.4147 123.375 8.31055L120.284 10.0765C119.817 9.21951 118.882 8.67413 117.765 8.67413C115.947 8.67413 114.649 10.0246 114.649 11.8166C114.649 13.5825 115.947 14.933 117.765 14.933C119.012 14.933 120.025 14.3357 120.518 13.3228L123.764 14.7772ZM133.263 18.1793H137.963L132.25 11.5828L137.548 5.42783H133.055L128.64 10.6998V0H124.978V18.1793H128.64V12.4658L133.263 18.1793ZM148.89 14.2838C148.89 16.725 146.813 18.439 143.852 18.439C141.67 18.439 139.671 17.9196 138.139 16.8289L139.229 14.2838C140.424 15.1667 141.982 15.6342 143.54 15.6342C144.683 15.6342 145.41 15.1927 145.41 14.5175C145.4 13.7944 144.369 13.5684 143.104 13.2914C141.099 12.852 138.508 12.2842 138.476 9.40131C138.45 7.01202 140.58 5.16812 143.592 5.16812C145.384 5.16812 147.176 5.60962 148.449 6.62247L147.41 9.27145C146.423 8.51831 144.813 7.94696 143.436 7.94696C142.502 7.94696 141.878 8.38846 141.878 8.95981C141.888 9.68 142.948 9.96439 144.241 10.3112C146.259 10.8524 148.843 11.5457 148.89 14.2838Z" fill="white"/>
<path fill-rule="evenodd" clip-rule="evenodd" d="M11 0H18V4V16V20H14H11V16H14V4H11V0Z" fill="#2885F6"/>
<path fill-rule="evenodd" clip-rule="evenodd" d="M7 0H4H0V4V16V20H4H7V16H4V4H7V0Z" fill="#2885F6"/>
</svg>
